<svg xmlns="http://www.w3.org/2000/svg" viewBox="0 0 70.38 40"><defs><style>.cls-1{fill:#fff;}</style></defs><title>logo-white-l</title><g id="Layer_2" data-name="Layer 2"><g id="Layer_1-2" data-name="Layer 1"><path class="cls-1" d="M30.43,2.54h1.8V12.7h-1.8Z"/><path class="cls-1" d="M32.93,9a3.75,3.75,0,1,1,7.49,0,3.75,3.75,0,1,1-7.49,0Zm5.66,0c0-1.56-.76-2.37-1.91-2.37S34.77,7.46,34.77,9s.74,2.36,1.91,2.36S38.59,10.57,38.59,9Z"/><path class="cls-1" d="M43.5,4.81v.53H45V6.71H43.5v6H41.71v-6H40.57V5.34h1.14V4.78A2.09,2.09,0,0,1,44.12,2.5a9.24,9.24,0,0,1,.93,0V3.93h-.63C43.78,3.93,43.5,4.24,43.5,4.81Z"/><path class="cls-1" d="M48,6.71v4c0,.48.25.64.85.64h.61V12.7c-.33,0-.66.05-.94.05-1.56,0-2.3-.52-2.3-1.88V6.71H45.12V5.34h1.14V3.2H48V5.34H49.5V6.71Z"/><path class="cls-1" d="M37.48,14.86V25H35.74V24a2.66,2.66,0,0,1-2.33,1.19c-2,0-3.31-1.51-3.31-3.85s1.27-3.85,3.31-3.85a2.63,2.63,0,0,1,2.27,1.13V14.86Zm-1.76,6.47c0-1.55-.72-2.36-1.89-2.36s-1.89.87-1.89,2.42.73,2.31,1.89,2.31S35.72,22.89,35.72,21.33Z"/><path class="cls-1" d="M45.45,21.89H39.94a1.83,1.83,0,0,0,1.92,1.9,1.68,1.68,0,0,0,1.68-1.06h1.72a3.28,3.28,0,0,1-3.42,2.45,3.54,3.54,0,0,1-3.66-3.85,3.54,3.54,0,0,1,3.63-3.85c2.26,0,3.64,1.64,3.64,4ZM40,20.63h3.69a1.81,1.81,0,0,0-1.85-1.75A1.77,1.77,0,0,0,40,20.63Z"/><path class="cls-1" d="M45.71,22.67h1.75c.1.93.57,1.26,1.64,1.26s1.45-.33,1.45-.89-.32-.78-1.44-1l-.84-.14c-1.58-.27-2.41-1-2.41-2.22s1.09-2.23,3-2.23c2.27,0,3.2,1,3.26,2.5h-1.7c0-.94-.63-1.21-1.56-1.21s-1.28.32-1.28.85.43.76,1.23.9l.92.14c1.77.32,2.56,1,2.56,2.24,0,1.49-1.21,2.31-3.27,2.31S45.82,24.46,45.71,22.67Z"/><path class="cls-1" d="M52.86,17.65h1.8V25h-1.8Zm0-2.63h1.77V16.7H52.88Z"/><path class="cls-1" d="M62.73,17.65v7.12c0,1.94-1.24,3.21-3.63,3.21-2.13,0-3.27-1-3.38-2.57h1.77c.08.79.65,1.19,1.64,1.19a1.62,1.62,0,0,0,1.81-1.79v-.92A2.63,2.63,0,0,1,58.68,25c-2,0-3.32-1.51-3.32-3.75s1.3-3.75,3.31-3.75A2.61,2.61,0,0,1,61,18.67v-1ZM61,21.23c0-1.47-.73-2.26-1.9-2.26s-1.88.85-1.88,2.28.73,2.25,1.88,2.25S61,22.69,61,21.23Z"/><path class="cls-1" d="M70.38,20.14V25h-1.8V20.43A1.22,1.22,0,0,0,67.2,19a1.65,1.65,0,0,0-1.64,1.85V25h-1.8V17.65H65.5v1.06a2.71,2.71,0,0,1,2.3-1.23A2.4,2.4,0,0,1,70.38,20.14Z"/><path class="cls-1" d="M32.81,31.34v4c0,.48.25.64.85.64h.61v1.37c-.33,0-.66.06-.94.06-1.56,0-2.3-.53-2.3-1.89V31.34H29.89V30H31V27.83h1.78V30h1.46v1.37Z"/><path class="cls-1" d="M41.84,34.21h-5.5a1.82,1.82,0,0,0,1.91,1.89,1.68,1.68,0,0,0,1.68-1.05h1.73a3.31,3.31,0,0,1-3.43,2.45,3.55,3.55,0,0,1-3.66-3.85A3.54,3.54,0,0,1,38.2,29.8c2.26,0,3.64,1.64,3.64,4ZM36.35,33H40a1.81,1.81,0,0,0-1.85-1.75A1.77,1.77,0,0,0,36.35,33Z"/><path class="cls-1" d="M47.39,37.33a2.31,2.31,0,0,1-.2-.9,2.75,2.75,0,0,1-2.37,1.07c-1.57,0-2.65-.78-2.65-2.21,0-1.23.74-2.1,2.82-2.3l1.12-.1c.68-.08,1-.3,1-.84s-.3-.91-1.34-.91-1.46.27-1.53,1.17H42.51c.1-1.56,1-2.51,3.31-2.51s3.07.88,3.07,2.21v3.92a2.8,2.8,0,0,0,.3,1.4Zm-.24-2.91v-.67a1.45,1.45,0,0,1-.85.3l-1,.11c-1,.12-1.33.47-1.33,1.06s.41,1,1.24,1A1.74,1.74,0,0,0,47.15,34.42Z"/><path class="cls-1" d="M60.79,32.47v4.86H59V32.75c0-.94-.42-1.4-1.27-1.4s-1.53.55-1.53,1.93v4H54.42V32.75c0-.94-.43-1.4-1.28-1.4s-1.52.55-1.52,1.93v4H49.83V30h1.74V31a2.37,2.37,0,0,1,2.09-1.23,2.32,2.32,0,0,1,2.28,1.37,2.66,2.66,0,0,1,2.29-1.37A2.41,2.41,0,0,1,60.79,32.47Z"/><circle class="cls-1" cx="9.95" cy="8.22" r="8.22"/><path class="cls-1" d="M16.69,40H3.2A3.2,3.2,0,0,1,.1,36L7.32,7.56h5.25L19.79,36A3.2,3.2,0,0,1,16.69,40Z"/></g></g></svg>